<?xml version="1.0" encoding="iso-8859-1"?>
<!-- Generator: Adobe Illustrator 17.1.0, SVG Export Plug-In . SVG Version: 6.00 Build 0)  -->
<!DOCTYPE svg PUBLIC "-//W3C//DTD SVG 1.1//EN" "http://www.w3.org/Graphics/SVG/1.1/DTD/svg11.dtd">
<svg version="1.1" id="perkin-svg" xmlns="http://www.w3.org/2000/svg" xmlns:xlink="http://www.w3.org/1999/xlink" x="0px" y="0px"
	 viewBox="0 0 404.4 165.92" style="enable-background:new 0 0 404.4 165.92;" xml:space="preserve">
<style type="text/css">
	.st0{fill:#DA4D4E;}
	.st1{fill:#414042;}
</style>
<g>
	<g>
		<path class="st0" d="M202.41,0.15h41.11v46.42c0,0-1.33,9.09-2.84,13.45c-1.51,4.36-3.6,7.39-3.6,7.39l-34.67-35.23V0.15z"/>
		<path class="st0" d="M202.6,71.95l15.15,13.64c0,0-4.74,4.93-8.9,7.39c-4.17,2.46-6.25,3.22-6.25,3.22V71.95z"/>
		<polygon class="st0" points="160.73,0.15 170.78,0.15 202.6,32.55 202.6,71.95 160.73,31.23 		"/>
	</g>
	<g>
		<path class="st1" d="M16.97,150.49c-1.6,1.83-3.92,2.75-6.95,2.75H2.94c-0.26,0-0.42,0.04-0.46,0.13
			c-0.04,0.09-0.07,0.29-0.07,0.61v10.49c0,0.58-0.02,0.96-0.06,1.14c-0.04,0.17-0.16,0.26-0.36,0.26H0.53
			c-0.34,0-0.53-0.13-0.56-0.39c-0.03-0.26-0.04-0.64-0.04-1.14v-29.32c0-0.41,0.03-0.7,0.09-0.87c0.06-0.17,0.29-0.26,0.69-0.26
			h8.45c1.86,0,3.45,0.21,4.76,0.63c1.31,0.42,2.37,1.03,3.17,1.81c0.8,0.79,1.38,1.75,1.75,2.88c0.36,1.14,0.55,2.42,0.55,3.84
			C19.37,146.18,18.57,148.65,16.97,150.49z M14.96,137.55c-1.22-1.11-3.2-1.66-5.94-1.66h-5.9c-0.32,0-0.53,0.09-0.63,0.26
			c-0.1,0.17-0.15,0.35-0.15,0.52v13.72c0,0.41,0.06,0.65,0.17,0.72c0.12,0.07,0.35,0.11,0.7,0.11h6.77c1.02,0,1.95-0.15,2.8-0.46
			c0.84-0.31,1.57-0.79,2.16-1.44c0.6-0.66,1.06-1.49,1.38-2.49c0.32-1,0.48-2.22,0.48-3.65C16.79,140.54,16.18,138.66,14.96,137.55
			z"/>
		<path class="st1" d="M46.83,165.78c-0.19,0.06-0.4,0.09-0.63,0.09H31.43c-0.29,0-0.49-0.08-0.59-0.24
			c-0.1-0.16-0.15-0.46-0.15-0.9v-29.41c0-0.41,0.03-0.75,0.09-1.03c0.06-0.28,0.25-0.42,0.57-0.42h14.07c0.52,0,0.84,0,0.96,0
			c0.15,0,0.22,0.16,0.22,0.48v1.09c0,0.23-0.18,0.36-0.55,0.39c-0.36,0.03-0.85,0.04-1.46,0.04H34.14c-0.5,0-0.81,0.07-0.94,0.22
			c-0.13,0.15-0.2,0.31-0.2,0.48v10.4c0,0.44,0.06,0.71,0.17,0.83c0.12,0.12,0.38,0.17,0.79,0.17h9.22c0.61,0,0.99,0.03,1.14,0.09
			c0.15,0.06,0.19,0.22,0.13,0.48l-0.26,1c-0.06,0.29-0.28,0.45-0.66,0.46c-0.38,0.02-0.83,0.02-1.35,0.02h-7.86
			c-0.52,0-0.86,0.07-1,0.2c-0.15,0.13-0.22,0.4-0.22,0.81v11.75c0,0.5,0.08,0.78,0.24,0.85c0.16,0.07,0.4,0.11,0.72,0.11h12.06
			c0.38,0,0.64,0.04,0.79,0.11c0.15,0.07,0.22,0.27,0.22,0.59v0.83C47.11,165.56,47.02,165.72,46.83,165.78z"/>
		<path class="st1" d="M77.39,145.68c-0.41,0.96-0.93,1.8-1.57,2.51c-0.64,0.71-1.35,1.29-2.12,1.73c-0.77,0.44-1.52,0.71-2.25,0.83
			c-0.29,0.06-0.46,0.11-0.5,0.15c-0.04,0.04,0.01,0.18,0.15,0.42l6.73,13.02c0.35,0.7,0.49,1.13,0.42,1.29
			c-0.07,0.16-0.27,0.24-0.59,0.24h-1.53c-0.2,0-0.37-0.09-0.5-0.26c-0.13-0.17-0.3-0.47-0.5-0.87l-6.51-13.24
			c-0.15-0.29-0.42-0.44-0.83-0.44h-6.2c-0.26,0-0.42,0.04-0.46,0.13c-0.04,0.09-0.07,0.29-0.07,0.61v12.67
			c0,0.58-0.02,0.96-0.06,1.14c-0.04,0.17-0.16,0.26-0.36,0.26h-1.46c-0.34,0-0.53-0.13-0.56-0.39c-0.03-0.26-0.04-0.64-0.04-1.14
			v-29.32c0-0.41,0.03-0.7,0.09-0.87c0.06-0.17,0.29-0.26,0.69-0.26h7.22c3.73,0,6.57,0.68,8.52,2.05c1.95,1.37,2.93,3.54,2.93,6.51
			C78,143.64,77.8,144.72,77.39,145.68z M74.73,139.3c-0.47-0.87-1.09-1.56-1.88-2.05c-0.79-0.5-1.71-0.84-2.77-1.05
			c-1.06-0.2-2.19-0.31-3.39-0.31h-4.94c-0.32,0.03-0.53,0.13-0.63,0.28c-0.1,0.16-0.15,0.33-0.15,0.5v11.53
			c0,0.41,0.06,0.65,0.17,0.72c0.12,0.07,0.35,0.11,0.7,0.11h6.6c2.07,0,3.75-0.53,5.05-1.6c1.3-1.06,1.94-2.69,1.94-4.87
			C75.43,141.27,75.19,140.17,74.73,139.3z"/>
		<path class="st1" d="M108.35,165.65c0.01,0.15-0.14,0.22-0.46,0.22h-1.83c-0.23,0-0.4-0.07-0.5-0.22
			c-0.1-0.15-0.28-0.39-0.55-0.74l-11.01-14.24l-0.96,1.18v12.89c0,0.41-0.01,0.7-0.04,0.87c-0.03,0.17-0.17,0.26-0.43,0.26h-1.33
			c-0.31,0-0.49-0.09-0.54-0.28c-0.04-0.19-0.06-0.57-0.06-1.16v-29.14c0-0.58,0.04-0.96,0.11-1.14s0.25-0.26,0.54-0.26h1.07
			c0.31,0,0.51,0.06,0.58,0.17c0.07,0.12,0.11,0.42,0.11,0.92v13.85l12.06-14.46c0.15-0.15,0.27-0.26,0.37-0.35
			c0.1-0.09,0.28-0.13,0.55-0.13h1.05c0.55,0,0.84,0.06,0.85,0.17c0.01,0.12-0.07,0.29-0.24,0.52l-12.02,14.55l12.41,15.95
			C108.24,165.31,108.33,165.5,108.35,165.65z"/>
		<path class="st1" d="M121.11,165.67c-0.04,0.13-0.21,0.2-0.49,0.2h-1.5c-0.17,0-0.27-0.07-0.3-0.22
			c-0.03-0.15-0.04-0.44-0.04-0.87v-30.15c0-0.32,0.05-0.52,0.15-0.61c0.1-0.09,0.32-0.13,0.66-0.13h0.94
			c0.34,0,0.54,0.06,0.58,0.17c0.04,0.12,0.06,0.41,0.06,0.87v29.97C121.17,165.28,121.15,165.54,121.11,165.67z"/>
		<path class="st1" d="M156.67,165.54c-0.1,0.22-0.32,0.33-0.67,0.33h-1.76c-0.29,0-0.51-0.07-0.66-0.22
			c-0.15-0.15-0.34-0.42-0.57-0.83l-15.29-26.22c-0.38-0.64-0.64-0.98-0.77-1.03c-0.13-0.04-0.2,0.31-0.2,1.07v25.69
			c0,0.58-0.02,0.98-0.06,1.2c-0.04,0.22-0.16,0.33-0.36,0.33h-1.2c-0.23,0-0.41-0.04-0.56-0.13c-0.14-0.09-0.21-0.48-0.21-1.18
			v-29.27c0-0.06,0-0.16,0-0.31s0.01-0.3,0.04-0.46c0.03-0.16,0.08-0.31,0.17-0.44c0.09-0.13,0.2-0.2,0.34-0.2h1.58
			c0.35,0,0.61,0.02,0.77,0.04c0.16,0.03,0.29,0.08,0.39,0.15c0.1,0.07,0.18,0.17,0.24,0.28c0.06,0.12,0.16,0.26,0.31,0.44
			l15.29,26.43c0.38,0.67,0.63,0.98,0.74,0.92c0.12-0.06,0.18-0.58,0.18-1.57v-25.3c0-0.32,0.01-0.63,0.02-0.94
			c0.01-0.31,0.12-0.46,0.32-0.46h1.46c0.31,0,0.49,0.12,0.54,0.35c0.04,0.23,0.06,0.6,0.06,1.09v29.01
			C156.82,164.92,156.77,165.32,156.67,165.54z"/>
		<path class="st1" d="M203.62,145.68c-0.41,0.96-0.93,1.8-1.57,2.51c-0.64,0.71-1.35,1.29-2.12,1.73
			c-0.77,0.44-1.52,0.71-2.25,0.83c-0.29,0.06-0.46,0.11-0.5,0.15c-0.04,0.04,0.01,0.18,0.15,0.42l6.73,13.02
			c0.35,0.7,0.49,1.13,0.42,1.29c-0.07,0.16-0.27,0.24-0.59,0.24h-1.53c-0.2,0-0.37-0.09-0.5-0.26c-0.13-0.17-0.3-0.47-0.5-0.87
			l-6.51-13.24c-0.15-0.29-0.42-0.44-0.83-0.44h-6.2c-0.26,0-0.42,0.04-0.46,0.13c-0.04,0.09-0.07,0.29-0.07,0.61v12.67
			c0,0.58-0.02,0.96-0.06,1.14c-0.04,0.17-0.16,0.26-0.36,0.26h-1.46c-0.34,0-0.53-0.13-0.56-0.39c-0.03-0.26-0.04-0.64-0.04-1.14
			v-29.32c0-0.41,0.03-0.7,0.09-0.87c0.06-0.17,0.29-0.26,0.69-0.26h7.22c3.73,0,6.57,0.68,8.52,2.05c1.95,1.37,2.93,3.54,2.93,6.51
			C204.23,143.64,204.02,144.72,203.62,145.68z M200.95,139.3c-0.47-0.87-1.09-1.56-1.88-2.05c-0.79-0.5-1.71-0.84-2.77-1.05
			c-1.06-0.2-2.19-0.31-3.39-0.31h-4.94c-0.32,0.03-0.53,0.13-0.63,0.28c-0.1,0.16-0.15,0.33-0.15,0.5v11.53
			c0,0.41,0.06,0.65,0.17,0.72c0.12,0.07,0.35,0.11,0.7,0.11h6.6c2.07,0,3.75-0.53,5.05-1.6c1.3-1.06,1.94-2.69,1.94-4.87
			C201.65,141.27,201.42,140.17,200.95,139.3z"/>
		<path class="st1" d="M233,165.78c-0.19,0.06-0.4,0.09-0.63,0.09H217.6c-0.29,0-0.49-0.08-0.59-0.24c-0.1-0.16-0.15-0.46-0.15-0.9
			v-29.41c0-0.41,0.03-0.75,0.09-1.03c0.06-0.28,0.25-0.42,0.57-0.42h14.07c0.52,0,0.84,0,0.96,0c0.15,0,0.22,0.16,0.22,0.48v1.09
			c0,0.23-0.18,0.36-0.55,0.39c-0.36,0.03-0.85,0.04-1.46,0.04h-10.44c-0.5,0-0.81,0.07-0.94,0.22c-0.13,0.15-0.2,0.31-0.2,0.48
			v10.4c0,0.44,0.06,0.71,0.17,0.83c0.12,0.12,0.38,0.17,0.79,0.17h9.22c0.61,0,0.99,0.03,1.14,0.09c0.15,0.06,0.19,0.22,0.13,0.48
			l-0.26,1c-0.06,0.29-0.28,0.45-0.66,0.46c-0.38,0.02-0.83,0.02-1.35,0.02h-7.86c-0.52,0-0.86,0.07-1,0.2
			c-0.15,0.13-0.22,0.4-0.22,0.81v11.75c0,0.5,0.08,0.78,0.24,0.85c0.16,0.07,0.4,0.11,0.72,0.11h12.06c0.38,0,0.64,0.04,0.79,0.11
			c0.15,0.07,0.22,0.27,0.22,0.59v0.83C233.28,165.56,233.19,165.72,233,165.78z"/>
		<path class="st1" d="M255.31,165.17c-0.09,0.26-0.17,0.44-0.24,0.55c-0.07,0.1-0.25,0.15-0.55,0.15h-1.62
			c-0.32,0-0.53-0.07-0.63-0.22c-0.1-0.15-0.2-0.36-0.28-0.66l-9.04-29.67c-0.12-0.35-0.18-0.62-0.2-0.81s-0.01-0.33,0-0.44
			c0.01-0.1,0.06-0.16,0.13-0.17c0.07-0.01,0.14-0.02,0.2-0.02h1.62c0.29,0,0.47,0.07,0.55,0.2c0.07,0.13,0.18,0.44,0.33,0.94
			l8.17,27.61l8.26-27.61c0.15-0.5,0.25-0.81,0.31-0.94c0.06-0.13,0.16-0.2,0.31-0.2h1.66c0.35,0,0.47,0.22,0.35,0.66L255.31,165.17
			z"/>
		<path class="st1" d="M291.85,165.78c-0.19,0.06-0.4,0.09-0.63,0.09h-14.77c-0.29,0-0.49-0.08-0.59-0.24
			c-0.1-0.16-0.15-0.46-0.15-0.9v-29.41c0-0.41,0.03-0.75,0.09-1.03c0.06-0.28,0.25-0.42,0.57-0.42h14.07c0.52,0,0.84,0,0.96,0
			c0.15,0,0.22,0.16,0.22,0.48v1.09c0,0.23-0.18,0.36-0.55,0.39c-0.36,0.03-0.85,0.04-1.46,0.04h-10.44c-0.5,0-0.81,0.07-0.94,0.22
			c-0.13,0.15-0.2,0.31-0.2,0.48v10.4c0,0.44,0.06,0.71,0.17,0.83c0.12,0.12,0.38,0.17,0.79,0.17h9.22c0.61,0,0.99,0.03,1.14,0.09
			c0.15,0.06,0.19,0.22,0.13,0.48l-0.26,1c-0.06,0.29-0.28,0.45-0.66,0.46c-0.38,0.02-0.83,0.02-1.35,0.02h-7.86
			c-0.52,0-0.86,0.07-1,0.2c-0.15,0.13-0.22,0.4-0.22,0.81v11.75c0,0.5,0.08,0.78,0.24,0.85c0.16,0.07,0.4,0.11,0.72,0.11h12.06
			c0.38,0,0.64,0.04,0.79,0.11c0.15,0.07,0.22,0.27,0.22,0.59v0.83C292.14,165.56,292.04,165.72,291.85,165.78z"/>
		<path class="st1" d="M320.04,165.78c-0.04,0.06-0.21,0.09-0.5,0.09h-15.26c-0.26,0-0.44-0.09-0.54-0.28
			c-0.1-0.19-0.15-0.6-0.15-1.25v-29.32c0-0.41,0.03-0.7,0.08-0.87c0.06-0.17,0.24-0.26,0.56-0.26h1.12c0.32,0,0.5,0.09,0.56,0.28
			c0.06,0.19,0.09,0.58,0.09,1.16v27.7c0,0.35,0.08,0.58,0.24,0.68c0.16,0.1,0.42,0.15,0.76,0.15h12.45c0.35,0,0.55,0.04,0.59,0.11
			c0.04,0.07,0.07,0.27,0.07,0.59v0.66C320.1,165.53,320.08,165.72,320.04,165.78z"/>
		<path class="st1" d="M346.64,165.78c-0.04,0.06-0.21,0.09-0.5,0.09h-15.26c-0.26,0-0.44-0.09-0.54-0.28
			c-0.1-0.19-0.15-0.6-0.15-1.25v-29.32c0-0.41,0.03-0.7,0.08-0.87c0.06-0.17,0.24-0.26,0.56-0.26h1.12c0.32,0,0.5,0.09,0.56,0.28
			c0.06,0.19,0.09,0.58,0.09,1.16v27.7c0,0.35,0.08,0.58,0.24,0.68c0.16,0.1,0.42,0.15,0.76,0.15h12.45c0.35,0,0.55,0.04,0.59,0.11
			c0.04,0.07,0.07,0.27,0.07,0.59v0.66C346.71,165.53,346.69,165.72,346.64,165.78z"/>
		<path class="st1" d="M372.95,165.78c-0.19,0.06-0.4,0.09-0.63,0.09h-14.77c-0.29,0-0.49-0.08-0.59-0.24
			c-0.1-0.16-0.15-0.46-0.15-0.9v-29.41c0-0.41,0.03-0.75,0.09-1.03c0.06-0.28,0.25-0.42,0.57-0.42h14.07c0.52,0,0.84,0,0.96,0
			c0.15,0,0.22,0.16,0.22,0.48v1.09c0,0.23-0.18,0.36-0.55,0.39s-0.85,0.04-1.46,0.04h-10.44c-0.5,0-0.81,0.07-0.94,0.22
			c-0.13,0.15-0.2,0.31-0.2,0.48v10.4c0,0.44,0.06,0.71,0.17,0.83s0.38,0.17,0.79,0.17h9.22c0.61,0,0.99,0.03,1.14,0.09
			c0.15,0.06,0.19,0.22,0.13,0.48l-0.26,1c-0.06,0.29-0.28,0.45-0.66,0.46c-0.38,0.02-0.83,0.02-1.35,0.02h-7.87
			c-0.52,0-0.86,0.07-1,0.2s-0.22,0.4-0.22,0.81v11.75c0,0.5,0.08,0.78,0.24,0.85c0.16,0.07,0.4,0.11,0.72,0.11h12.06
			c0.38,0,0.64,0.04,0.79,0.11c0.15,0.07,0.22,0.27,0.22,0.59v0.83C373.23,165.56,373.13,165.72,372.95,165.78z"/>
		<path class="st1" d="M403.51,145.68c-0.41,0.96-0.93,1.8-1.57,2.51c-0.64,0.71-1.35,1.29-2.12,1.73
			c-0.77,0.44-1.52,0.71-2.25,0.83c-0.29,0.06-0.46,0.11-0.5,0.15s0.01,0.18,0.15,0.42l6.73,13.02c0.35,0.7,0.49,1.13,0.42,1.29
			c-0.07,0.16-0.27,0.24-0.59,0.24h-1.53c-0.2,0-0.37-0.09-0.5-0.26c-0.13-0.17-0.3-0.47-0.5-0.87l-6.51-13.24
			c-0.15-0.29-0.42-0.44-0.83-0.44h-6.2c-0.26,0-0.42,0.04-0.46,0.13c-0.04,0.09-0.07,0.29-0.07,0.61v12.67
			c0,0.58-0.02,0.96-0.06,1.14s-0.17,0.26-0.37,0.26h-1.46c-0.34,0-0.53-0.13-0.56-0.39c-0.03-0.26-0.04-0.64-0.04-1.14v-29.32
			c0-0.41,0.03-0.7,0.09-0.87s0.29-0.26,0.69-0.26h7.22c3.73,0,6.57,0.68,8.52,2.05c1.95,1.37,2.93,3.54,2.93,6.51
			C404.12,143.64,403.92,144.72,403.51,145.68z M400.84,139.3c-0.47-0.87-1.09-1.56-1.88-2.05c-0.79-0.5-1.71-0.84-2.77-1.05
			s-2.19-0.31-3.39-0.31h-4.94c-0.32,0.03-0.53,0.13-0.63,0.28c-0.1,0.16-0.15,0.33-0.15,0.5v11.53c0,0.41,0.06,0.65,0.17,0.72
			c0.12,0.07,0.35,0.11,0.7,0.11h6.6c2.07,0,3.75-0.53,5.05-1.6c1.3-1.06,1.94-2.69,1.94-4.87
			C401.54,141.27,401.31,140.17,400.84,139.3z"/>
	</g>
</g>
</svg>
